<svg id="Layer_1" data-name="Layer 1" xmlns="http://www.w3.org/2000/svg" viewBox="0 0 512 512"><defs><style>.cls-1{fill:#bababa;}</style></defs><title>phone-call</title><path class="cls-1" d="M492.56,400.56,392.23,300.24a30.75,30.75,0,0,0-43.43,0l-26.09,26.09a30.73,30.73,0,0,0-7.77,30.24l-9.84,9.84h0c-7,7-50.52-3.74-103.14-56.36s-63.36-96.14-56.37-103.14h0l9.85-9.85a30.74,30.74,0,0,0,30.24-7.77l26.09-26.09a30.75,30.75,0,0,0,0-43.43L111.44,19.44a30.71,30.71,0,0,0-43.43,0L41.91,45.53a30.73,30.73,0,0,0-7.77,30.24s-8.34,8.42-8.76,9c-27.75,30.85-33,79.42-14.56,137.49,18,56.86,56.86,117.09,109.37,169.6s112.74,91.35,169.6,109.37C312.62,508.41,334,512,353.39,512c31.81,0,58.34-9.65,77.35-28.66l5.47-5.47a30.83,30.83,0,0,0,8.53,1.21,30.51,30.51,0,0,0,21.72-9L492.56,444A30.75,30.75,0,0,0,492.56,400.56ZM89.72,41.16,190,141.48,164,167.58h0l-.37-.37-49.79-49.79L63.63,67.25ZM409,461.62h0c-22.09,22.09-61.15,25.74-110,10.27C246.81,455.34,191,419.18,141.91,370.09S56.66,265.19,40.1,212.94c-15.47-48.82-11.82-87.87,10.27-110h0l2.77-2.77L131,178.05l-7.14,7.14v0c-29.58,29.62,6,96.15,56.38,146.56,37.73,37.73,84.49,67.14,118.05,67.14,11.28,0,21.08-3.33,28.53-10.78h0l7.13-7.13,77.86,77.86Zm35.72-13.25L344.43,348,370.52,322,470.84,422.28S444.76,448.38,444.75,448.37Z" transform="translate(0 0)"/><path class="cls-1" d="M388.82,123.18A153.62,153.62,0,0,0,279.47,77.89a15.36,15.36,0,0,0,0,30.71A123.92,123.92,0,0,1,403.4,232.52a15.36,15.36,0,1,0,30.71,0A153.63,153.63,0,0,0,388.82,123.18Z" transform="translate(0 0)"/><path class="cls-1" d="M443.89,68.11A231,231,0,0,0,279.47,0a15.36,15.36,0,0,0,0,30.71A201.82,201.82,0,0,1,481.29,232.53a15.36,15.36,0,0,0,30.71,0A231,231,0,0,0,443.89,68.11Z" transform="translate(0 0)"/><path class="cls-1" d="M333.74,178.26a75.22,75.22,0,0,0-54.26-22.48h0a15.36,15.36,0,1,0,0,30.71h0A44.54,44.54,0,0,1,312,200a45.12,45.12,0,0,1,13.48,32.54,15.36,15.36,0,0,0,15.35,15.36h0a15.36,15.36,0,0,0,15.36-15.35A75.23,75.23,0,0,0,333.74,178.26Z" transform="translate(0 0)"/></svg>